<svg xmlns="http://www.w3.org/2000/svg" viewBox="0 0 1505.12 1468.16"><defs><style>.cls-1{fill:#676767;}.cls-2{fill:#ffcd94;}.cls-3{fill:#282828;}.cls-4{fill:#efbf8f;}.cls-5{fill:#7b654e;}.cls-6{fill:#4f4237;}</style></defs><g id="Layer_2" data-name="Layer 2"><g id="Layer_1-2" data-name="Layer 1"><path class="cls-1" d="M1500.77,1354.61,1080.1,59.94C1059.48-3.53,977.88-20.87,933.23,28.72L22.34,1040.36c-44.66,49.6-18.88,128.93,46.4,142.81l1331.55,283C1465.57,1480.08,1521.39,1418.08,1500.77,1354.61Zm-224.66-50.74L248.21,1085.39c-32.64-6.94-45.53-46.61-23.2-71.41L928.18,233c22.32-24.8,63.12-16.13,73.43,15.61l324.74,999.43C1336.66,1279.81,1308.75,1310.81,1276.11,1303.87Z"/><path class="cls-2" d="M493.71,1018c10.84,86.66,9.82,86.9,37.18,165.57,21.69,62.35,55.38,113.35,98.05,165.31,68.6,83.52,101.13,72.26,112.87,71.82,16.52-.6,25.14-1.7,54.73-.6,28.34,1.06,56.26,5.06,70.68,5.17,36.26.26,52.45-29.65,87-50.91,44.33-27.28,139.47-122.23,152.43-164.57,34.2-111.73,52.72-161.28,60.43-290.73.72-12.16,13.15-141.47-14.83-301-11.62-66.28-25.36-80.34-38.76-95.77-30.4-35-105.47-70.09-190.83-82.42-107.87-15.57-75.45,14.93-126.11,4.9-35.74-7.08-54.14-7.12-69.44-12.39-26.3-9.05-18.56-6.55-65.1-3.58-53.58,3.42-108.37,14.38-163.09,90.77-15.29,21.34-5.85,46.73-9.12,94.63C481.06,741.87,473.56,732.93,470,779.49c-1.49,19.39-8.76,43,7.28,152.16C484.7,982.26,488.56,976.77,493.71,1018Z"/><path class="cls-3" d="M461.34,1061.67c12.76,13.38,29.92,29.23,37.37,24.93,5-2.89,3.74-13.83,2.94-20.09-5.88-46-18.87-77.24-23.88-121.45-.5-4.43,3.79-5.68,3.52-8.67-2.82-31.3-5.19-57.14.24-73.38a73.21,73.21,0,0,0,4-26.38c-.44-12.12-6.65-17.06-9.41-28.38-2.14-8.78-2.31-21.81,7-40,.31-33.41,5.91-58.66,11-75.68s10.53-28.14,10.9-47.15c.42-21.78-4.68-30.26-7.59-47.24-7.8-45.59,22.29-79,26.26-84.28,23.44-31,54.85-40.51,92.51-52,36.68-11.15,77.67-23.61,117.07-8.17,11,4.3,24.94,12,46.22,12s54.77-7.91,60.12-9c65.72-12.94,103.2-6.64,202.61,40.29,38.61,18.24,67.74,40.57,81.93,77.78,12.69,33.29,8.17,68.3,5.91,100.06-1.12,15.74-6.89,29-4.38,37.8,3.09,10.91,23.85,27.25,30.25,47,5.86,18.07,6.25,25.39,7.17,60.37.35,12.92,1.41,31.39,3.53,68.32,3.15,54.76-2.54,58.57-3.3,81.21a380,380,0,0,1-6.06,59.18c-9.21,49.66-24.4,72.34-15.69,80,9.77,8.59,36.51-2.8,36.4-8.88-.07-4.26-13.4-4.42-18-14.58-3-6.74-.46-13.9.2-16,5-15.53,16.22-106.63,31.12-241.41.23,4.47,28.17,32.56,34.37,40.38,2.48,3.12,8.48,10.86,14.2,12,2.53.51,9-.15,18-1.23s21.93-5.52,21.8-11.94-9.38-5.79-20.28-16.18c-8.34-8-19.52-36.82-14.28-43.85,20.48-27.49,29.27-82,33.66-110,5.37-34.35,11.84-75.68-11.54-112.53-18.7-29.49-47.9-42.53-63.28-48-6.48-12.25-13.73-25-21.86-38a621.56,621.56,0,0,0-44.39-62.33c7.54-24.36-4.57-47-21.2-51.74-16.3-4.66-31.74,9.35-32.72,10.27a311.32,311.32,0,0,0-7.09-39.68c-4.52-18.3-7.26-22.11-10-24.75-12.85-12.4-34.25-7.33-36.74-6.7-17.51,4.41-26.62,17.91-28.91,21.54.5-.63,10.56-13.84,4.71-28.68-.43-1.08-4.62-11.24-15.37-15.44-13-5.06-25.45,2.5-30.61,5.64a47,47,0,0,0-12.17,10.69c4.81-11.84,16.76-20.74,3.56-28.65-21.87-13.09-39.78,18.64-46.36,11.89-5-5.11,8.78-15.9-12.4-29-12.73-7.89-36.17,10.19-36.17,10.19s-17.45-11.4-28.84-9.26c-6.65,1.25-11.5,5.32-14.54,8.5-.56-.9-8.22-12.67-22.12-12.92-11.07-.2-21.41,7-25.61,18-1.06-1.69-7.22-11.18-18.71-13-11.69-1.9-24.09,4.88-30.21,17A66.44,66.44,0,0,0,678,306.29c-15.33-10.94-25-11.2-31.12-9.18,0,0-3.38,1.12-20,14.39l-9.74,15.17a27.81,27.81,0,0,0-41.16,30,54,54,0,0,0-19.09,8.65,54.54,54.54,0,0,0-17.52,21.14,78.28,78.28,0,0,0-26.73,51.13,331.44,331.44,0,0,0-41.93,73.34c-18.16,44-22.16,80.94-24.79,107-3.75,37.22,1.24,31.67,1.32,135.7,0,65.45-1.92,66.6,1.77,83.22,7.3,32.9,20.24,51.8,10.64,76.06-5,12.54-13.77,21-10.32,31.16,2.57,7.58,14.8,5.48,23.38,16.3,3.31,4.17,9.67,48.78,10.49,51.57Z"/><path class="cls-4" d="M477.12,833.83c-3.18-12.78-34.46-33.15-53.74-17.19-20,16.53-11.52,45.9-9.7,68.4,3.32,41.18,37,65.77,37.4,103,.18,16,8.26,14.08,12.95,34.31,1.4,6,2.54,28.28,15,28.28,14.07,0,7.79-7.89,10.65-14.62,5.34-12.53,2.86-19.72,2.86-19.72s-13.43-65.3-16.46-83.9C467.66,880.9,482.71,856.31,477.12,833.83Z"/><path class="cls-4" d="M1183.39,830.52c1-10.4,32.48-33.94,51.76-18,20,16.53,4.1,61.56,2.28,84.06-3.32,41.18-24.66,33.44-25.08,70.69-.18,16-12.65,36.39-17.34,56.62-1.4,6-4,28.93-17.16,28.93-14.71,0-15.32-24.88-15.32-24.88s4.93-24.57,15.5-96.62C1182.94,897.91,1182.17,843.15,1183.39,830.52Z"/><path class="cls-5" d="M481.15,937.57c1.88,32,9.06,67.47,21.49,124,13.46,61.09,64.91,133.56,65.88,134.53,2,2,5.77,40.13,13.68,67.26,2.79,9.57,5,31.86,16.9,47.11,20.91,26.94,19.83,23.45,40.71,48.22,20.63,24.47,44,52.8,76.92,54,17.44.65,43.33-5.09,79.81-2.28l.64,0a371.46,371.46,0,0,1,57.5,9.07c30.77,6.63,60.81-17.75,85.53-35.57,24-17.34,41.77-36.06,49-45.37a231.47,231.47,0,0,0,23.51-36.73,211.56,211.56,0,0,0,21-70.44,462.34,462.34,0,0,0,74.11-90.07c11.09-17.64,36.68-56.78,44.06-93.8.55-2.77,2.84-14.75,5.3-30.15,2.78-17.39,4.6-31.8,5.74-41.64,2.38-1.46.58,9.72.58,9.72s-3.22,34.24-9.13,69.42c-14.44,70.95-33.5,141.68-63.9,190.58-23.93,38.48-57.13,65.4-110.59,114-63,57.22-86.45,61.63-97.94,64.12-19.73,3.13-22.61-1.32-85.36-3.48s-63.67,2.18-81.76-1c-57.32-10-87.24-61.24-117.51-104.45-36-51.4-56.71-97.41-80.83-167.61-9.71-28.27-11.6-54-23.35-110.83-7.5-36.24-15.17-94.74-15.17-94.74S479.67,938,481.15,937.57Z"/><path class="cls-6" d="M1007.45,1294.49c-9.63-8.64-26.4-52.42-25.46-55.73,1.55-5.48,11.93-7.68,14.82-19.76,5.58-23.31-2.66-38-4.94-39.53s-54.9-20.14-82.09-31.92c-26.61-11.53-63.84-33.06-69.92-33.06-5.7,0-24.7,21.66-31.92,22-6,.31-38.44-24-45.61-23.56-7.72.44-54.65,39.72-73.34,41.42-16.77,1.52-44.43,5.85-47.13,6.84-3.18,1.16-23.58,25.53-24.7,34.2-1.52,11.78,14.13,16.25,16.72,32.69,3.09,19.56-11.76,48.75-30.4,56.87a89.8,89.8,0,0,1-21.66,6.17c2.44,4.19,70.9,125.48,136.46,131.38,18.54,1.67,33.61-3.06,60.37-2.83,37.23.31,48.81,9.16,69.26,9.16,102.16,0,188.62-120.92,188.62-120.92C1038.51,1307.64,1018.47,1304.38,1007.45,1294.49Zm-31.16.76c-6.84,36.87-45,49.71-87,56.63-32.3,5.32-70.66-30.5-82.78-30.57-6.33,0-59.73,34.75-89,28.29-32.51-7.18-71.78-37.29-78.67-71.83-1.13-5.66-3.13-21.64,0-32.55,0,0,3.45-31.83,6.49-35.63,7.06-8.82,105.82-19.26,145.9-29.36,2.42-.61,14.58,6.25,25.85,5.32,13.58-1.12,21.48-6,26.22-5.36,78,10.3,124.48,27.88,127,31.3,2.21,3,4.46,25.25,6,34.33C978.71,1259.86,978.22,1284.86,976.29,1295.25Z"/><path d="M991.3,1036.09c-40.82.71-75.7-11-98.21-32.95-30.16-29.43-49.64-86.24-44.3-103.83l.12-.39c.69-2.19,2.79-8.83-.18-14.28-1.39-2.55-4-4.67-7.83-6.48a27.48,27.48,0,0,0-13.06-2.53c-2.47,0-5.18.25-8.33.48-2.91.22-6.21.47-10,.63-2.12.1-4.1.16-6,.19-4.87.09-9,0-12.27-.08-2.45-.06-4.56-.11-6.41-.08-5.33.1-8,.9-10.77,3.31-3.26,2.79-5.23,6.14-5.56,9.45-.5,5.13,3,9.54,4.66,11.66.3.37.54.68.71.92,1.06,1.49,2.28,4.48.59,13.16-4.67,24-30.25,81.21-60.47,100.47-17.95,11.44-45.38,18-77.23,18.6-50,.87-110.44-14.19-132.9-49.79-22.31-35.37-31.24-86.1-35.53-110.48-.91-5.16-1.77-10-2.19-11.12-3.31-5.27-10-6-15.33-6.55-1.35-.15-2.62-.28-3.72-.49l-2.38-.44-.3-28.87,2-.69c24.07-8.31,77.55-14.75,130.06-15.67,34.74-.6,65.89,1.17,90.08,5.12,29.28,4.79,75.84,24.64,101.54,40.4,16.48-.35,33.58-.79,45.92-1.18,11.22-.35,19.42-.69,29.8-1.12l5.4-.23c27.16-14.72,77.93-33.49,107-39.54,13-2.7,30.2-4.26,51.15-4.62,54.66-1,127.21,6.82,155.25,16.64l2,.7c0,.62,0,1.35,0,2.12-.08,6.14-.11,10.56-.13,13.3,0,3.12-.06,7.63-.13,13.31l0,2.22-2.13.58a25,25,0,0,1-3.14.57c-4,.55-7.18,1.19-8.58,3.94-.63,1.27-2,8.37-3.38,15.89-5.16,27.42-14.76,78.46-34.19,107-19.68,29-69.71,49.81-121.65,50.71Zm23-213.37c-9.72.17-19.73.73-29.75,1.65-40.07,3.71-94.68,18.79-116.74,49.09-10.51,14.44,11.29,97.33,30.29,115.18,22.74,21.37,57.23,33.26,94.62,32.6A167.06,167.06,0,0,0,1097.41,982c16.9-14.29,39.67-103.41,23.48-127.44C1102.33,827,1052.66,822.05,1014.26,822.72Zm-419,1.21c-43.8.76-95,10.24-103.94,29.24-15.36,32.69,16.8,113.29,28.31,128.19,19.14,24.81,60.68,39.09,111.12,38.21,30.26-.53,59.07-6.63,75.18-15.93C726.13,992,743,964.51,751.15,930.12c6.3-26.67,5.81-51.73-1.21-62.36-14.63-22.14-87.65-42-138.35-43.71C606.32,823.87,600.83,823.83,595.27,823.93Z"/><path d="M1164.68,826.57c20.58-6.84,39.67-18.15,60.25-25,6.56,5.8,19.68,20.39,19.68,20.39s-17-3.66-25.45-4c-18.74,10.25-36,29.42-54.74,39.67C1164.51,848.77,1164.59,835.44,1164.68,826.57Z"/><path class="cls-4" d="M1183.39,829s19.84-23.27,36.12-21.88c21.41,1.84,31,27.58,25.59,35.53-4.51,6.65-62.43,6.54-62.43,6.54Z"/><path class="cls-1" d="M783.06,195.5,262.5,773.64l86.7,102.42,562-624.16Z"/></g></g></svg>